<svg width="31" height="35" viewBox="0 0 31 35" fill="none" xmlns="http://www.w3.org/2000/svg">
<path d="M1 6.5H30V20V22.5C30 25.3567 29.9979 27.3986 29.7892 28.9504C29.5845 30.4734 29.1974 31.3736 28.5355 32.0355C27.8736 32.6974 26.9734 33.0845 25.4504 33.2892C23.8986 33.4979 21.8567 33.5 19 33.5H12C9.1433 33.5 7.10138 33.4979 5.54962 33.2892C4.02662 33.0845 3.12638 32.6974 2.46447 32.0355C1.80256 31.3736 1.41551 30.4734 1.21075 28.9504C1.00212 27.3986 1 25.3567 1 22.5V6.5Z" stroke="black" stroke-width="2"/>
<path d="M2.30225 6.5L4.6594 1H26.3406L28.6977 6.5H2.30225Z" stroke="black" stroke-width="2"/>
<path d="M9 13C10.5 18 20.5 18.5 22 13" stroke="black" stroke-width="2" stroke-linecap="round"/>
</svg>
